<svg style="display:none">

  <defs>
    <svg id="check-circle" xmlns="http://www.w3.org/2000/svg" viewBox="0 0 24 24"><path fill-rule="evenodd" d="M2.761 8.173A10 10 0 0 1 12 2a10.01 10.01 0 0 1 10 10A10 10 0 1 1 2.761 8.173Zm1.54 7.016A8.334 8.334 0 0 0 12 20.333 8.342 8.342 0 0 0 20.333 12a8.333 8.333 0 1 0-16.032 3.189Zm11.261-5.945a.833.833 0 0 1 1.179 1.178l-4.756 4.757a1.561 1.561 0 0 1-1.113.461h-.027a1.563 1.563 0 0 1-1.12-.5l-2.288-2.25a.835.835 0 0 1 1.196-1.167l2.24 2.211 4.69-4.69Z" /></svg>
  </defs>

</svg>
