<svg xmlns="http://www.w3.org/2000/svg" xmlns:xlink="http://www.w3.org/1999/xlink" width="28" height="20" viewBox="0 0 28 20"><defs><path id="a" d="M41 230c0-1.1.9-2 2-2h24a2 2 0 0 1 2 2v16a2 2 0 0 1-2 2H43a2 2 0 0 1-2-2z"/><path id="b" d="M52.33 240.67v-5.34h5.34v5.34zM55 240a2 2 0 1 0 0-4 2 2 0 0 0 0 4z"/><path id="e" d="M41 234.67V228h28v6.67z"/><path id="f" d="M41 248v-6.67h28V248z"/><path id="g" d="M53 238a2 2 0 1 1 4 0 2 2 0 0 1-4 0z"/><clipPath id="c"><use xlink:href="#a" fill="#fff"/></clipPath><clipPath id="h"><use xlink:href="#b" fill="#fff"/></clipPath><clipPath id="d"><use xlink:href="#a"/></clipPath></defs><g fill="#fff" transform="translate(-41 -228)"><use xlink:href="#a"/><use xlink:href="#a" fill-opacity="0" stroke="#f5f5f5" stroke-miterlimit="50" clip-path="url(&quot;#c&quot;)"/></g><g clip-path="url(#d)" transform="translate(-41 -228)"><use xlink:href="#e" fill="#88bbe8"/></g><g clip-path="url(#d)" transform="translate(-41 -228)"><use xlink:href="#f" fill="#88bbe8"/></g><g clip-path="url(#d)" transform="translate(-41 -228)"><use xlink:href="#g" fill="#f4b32e"/><use xlink:href="#g" fill="#fff" fill-opacity="0" stroke="#db7a2c" stroke-miterlimit="50" stroke-width="1.33" clip-path="url(&quot;#h&quot;)"/></g></svg>