<svg xmlns="http://www.w3.org/2000/svg" xmlns:xlink="http://www.w3.org/1999/xlink" width="28" height="20" viewBox="0 0 28 20"><defs><path id="a" d="M962 315c0-1.1.9-2 2-2h24a2 2 0 0 1 2 2v16a2 2 0 0 1-2 2h-24a2 2 0 0 1-2-2z"/><path id="d" d="M962 333v-10.67h28V333z"/><path id="e" d="M962 322.33V313h9.33v9.33z"/><path id="f" d="m966.67 318.7-1.57 1.12.58-1.83-1.55-1.15 1.92-.01.62-1.83.6 1.83 1.93.01-1.54 1.15.57 1.83z"/><clipPath id="b"><use xlink:href="#a" fill="#fff"/></clipPath><clipPath id="c"><use xlink:href="#a"/></clipPath></defs><g fill="#fff" transform="translate(-962 -313)"><use xlink:href="#a"/><use xlink:href="#a" fill-opacity="0" stroke="#f5f5f5" stroke-miterlimit="50" clip-path="url(&quot;#b&quot;)"/></g><g clip-path="url(#c)" transform="translate(-962 -313)"><use xlink:href="#d" fill="#ea3b2e"/></g><g clip-path="url(#c)" transform="translate(-962 -313)"><use xlink:href="#e" fill="#0b48c2"/></g><g clip-path="url(#c)" transform="translate(-962 -313)"><use xlink:href="#f" fill="#fff"/></g></svg>