<svg xmlns="http://www.w3.org/2000/svg" xmlns:xlink="http://www.w3.org/1999/xlink" width="28" height="20" viewBox="0 0 28 20"><defs><path id="a" d="M41 194.66v-5.33h28v5.33z"/><path id="b" d="M41 200v-5.33h28V200z"/><path id="c" d="M41 182c0-1.1.9-2 2-2h24a2 2 0 0 1 2 2v16a2 2 0 0 1-2 2H43a2 2 0 0 1-2-2z"/><path id="i" d="M41 189.33V180h28v9.33z"/><filter id="e" width="50" height="27.34" x="30" y="178.33" filterUnits="userSpaceOnUse"><feOffset in="SourceGraphic" result="FeOffset1280Out"/><feGaussianBlur in="FeOffset1280Out" result="FeGaussianBlur1281Out" stdDeviation="0 0"/></filter><filter id="g" width="50" height="27.33" x="30" y="183.67" filterUnits="userSpaceOnUse"><feOffset in="SourceGraphic" result="FeOffset1296Out"/><feGaussianBlur in="FeOffset1296Out" result="FeGaussianBlur1297Out" stdDeviation="0 0"/></filter><mask id="f" width="2.07" height="2.37" x="-1.04" y="-1.19"><path fill="#fff" d="M40 188.33h30v7.34H40z"/><use xlink:href="#a"/></mask><mask id="h" width="2.07" height="2.38" x="-1.04" y="-1.19"><path fill="#fff" d="M40 193.67h30V201H40z"/><use xlink:href="#b"/></mask><clipPath id="d"><use xlink:href="#c"/></clipPath></defs><use xlink:href="#c" fill="#fff" transform="translate(-41 -180)"/><g clip-path="url(#d)" transform="translate(-41 -180)"><g filter="url(#e)"><use xlink:href="#a" fill="none" stroke="#000" stroke-opacity=".06" stroke-width="2" mask="url(&quot;#f&quot;)"/><use xlink:href="#a" fill-opacity=".06"/></g><use xlink:href="#a" fill="#0748ae"/></g><g clip-path="url(#d)" transform="translate(-41 -180)"><g filter="url(#g)"><use xlink:href="#b" fill="none" stroke="#000" stroke-opacity=".06" stroke-width="2" mask="url(&quot;#h&quot;)"/><use xlink:href="#b" fill-opacity=".06"/></g><use xlink:href="#b" fill="#de2035"/></g><g clip-path="url(#d)" transform="translate(-41 -180)"><use xlink:href="#i" fill="#ffd935"/></g></svg>