<svg xmlns="http://www.w3.org/2000/svg" xmlns:xlink="http://www.w3.org/1999/xlink" width="28" height="20" viewBox="0 0 28 20"><defs><path id="a" d="M41 86c0-1.1.9-2 2-2h24a2 2 0 0 1 2 2v16a2 2 0 0 1-2 2H43a2 2 0 0 1-2-2z"/><path id="d" d="M59.67 104V84H69v20z"/><path id="e" d="M41 104V84h9.33v20z"/><path id="f" d="M53.66 95.64a2.67 2.67 0 0 1-1.33-2.31zm4-2.31c0 .94-.49 1.77-1.23 2.25z"/><path id="g" d="M53.67 92.67c0-1.1.6-2 1.33-2 .74 0 1.34.9 1.34 2s-.6 2-1.33 2c-.74 0-1.34-.9-1.34-2z"/><clipPath id="b"><use xlink:href="#a" fill="#fff"/></clipPath><clipPath id="c"><use xlink:href="#a"/></clipPath></defs><g fill="#fff" transform="translate(-41 -84)"><use xlink:href="#a"/><use xlink:href="#a" fill-opacity="0" stroke="#f5f5f5" stroke-miterlimit="50" clip-path="url(&quot;#b&quot;)"/></g><g clip-path="url(#c)" transform="translate(-41 -84)"><use xlink:href="#d" fill="#e3283e"/></g><g clip-path="url(#c)" transform="translate(-41 -84)"><use xlink:href="#e" fill="#128a60"/></g><g clip-path="url(#c)" transform="translate(-41 -84)"><use xlink:href="#f" fill="#fff" fill-opacity="0" stroke="#8c9157" stroke-linecap="round" stroke-miterlimit="50" stroke-width="1.33"/></g><g clip-path="url(#c)" transform="translate(-41 -84)"><use xlink:href="#g" fill="#c59262"/></g></svg>