<svg xmlns="http://www.w3.org/2000/svg" xmlns:xlink="http://www.w3.org/1999/xlink" width="28" height="20" viewBox="0 0 28 20"><defs><path id="a" d="M42.33 134a.66.66 0 1 1 1.33 0 .66.66 0 0 1-1.33 0zm2.67 0a.66.66 0 1 1 1.33 0 .66.66 0 0 1-1.33 0zm2.66 0a.66.66 0 1 1 1.33 0 .66.66 0 0 1-1.33 0zm2.67 0a.66.66 0 1 1 1.33 0 .66.66 0 0 1-1.33 0zm-6.67 1.32a.66.66 0 1 1 1.33 0 .66.66 0 0 1-1.33 0zm2.67 0a.66.66 0 1 1 1.33 0 .66.66 0 0 1-1.33 0zm2.67 0a.66.66 0 1 1 1.33 0 .66.66 0 0 1-1.33 0zm1.33 1.34a.66.66 0 1 1 1.33 0 .66.66 0 0 1-1.33 0zm-2.67 0a.66.66 0 1 1 1.33 0 .66.66 0 0 1-1.33 0zm-2.66 0a.66.66 0 1 1 1.33 0 .66.66 0 0 1-1.33 0zm-2.67 0a.66.66 0 1 1 1.33 0 .66.66 0 0 1-1.33 0zm1.33 1.34a.66.66 0 1 1 1.33 0 .66.66 0 0 1-1.33 0zm2.67 0a.66.66 0 1 1 1.33 0 .66.66 0 0 1-1.33 0zm2.67 0a.66.66 0 1 1 1.33 0 .66.66 0 0 1-1.33 0zm1.33 1.32a.66.66 0 1 1 1.33 0 .66.66 0 0 1-1.33 0zm-2.67 0a.66.66 0 1 1 1.33 0 .66.66 0 0 1-1.33 0zm-2.66 0a.66.66 0 1 1 1.33 0 .66.66 0 0 1-1.33 0zm-2.67 0a.66.66 0 1 1 1.33 0 .66.66 0 0 1-1.33 0z"/><path id="b" d="M41 134c0-1.1.9-2 2-2h24a2 2 0 0 1 2 2v16a2 2 0 0 1-2 2H43a2 2 0 0 1-2-2z"/><path id="d" d="M41 133.33V132h28v1.33zm0 2.67v-1.33h28V136zm0 2.66v-1.33h28v1.33zm0 2.67V140h28v1.33zm0 2.67v-1.33h28V144zm0 2.66v-1.33h28v1.33zm0 2.67V148h28v1.33zm0 2.67v-1.33h28V152z"/><path id="e" d="M41 141.33V132h12v9.33z"/><linearGradient id="h" x1="46.99" x2="46.99" y1="133.33" y2="140" gradientUnits="userSpaceOnUse"><stop offset="0" stop-color="#fff"/><stop offset="1" stop-color="#f0f0f0"/></linearGradient><clipPath id="c"><use xlink:href="#b"/></clipPath><filter id="f" width="29.34" height="27.67" x="32.33" y="123.33" filterUnits="userSpaceOnUse"><feOffset dy="1" in="SourceGraphic" result="FeOffset1170Out"/><feGaussianBlur in="FeOffset1170Out" result="FeGaussianBlur1171Out" stdDeviation="0 0"/></filter><mask id="g" width="2" height="2" x="-1" y="-1"><path fill="#fff" d="M42.33 133.33h9.34V140h-9.34z"/><use xlink:href="#a"/></mask></defs><use xlink:href="#b" fill="#fff" transform="translate(-41 -132)"/><g clip-path="url(#c)" transform="translate(-41 -132)"><use xlink:href="#d" fill="#d02f44"/></g><g clip-path="url(#c)" transform="translate(-41 -132)"><use xlink:href="#e" fill="#46467f"/></g><g clip-path="url(#c)" transform="translate(-41 -132)"><g filter="url(#f)"><use xlink:href="#a" fill="none" stroke-opacity=".06" stroke-width="0" mask="url(&quot;#g&quot;)"/><use xlink:href="#a" fill-opacity=".06"/></g><use xlink:href="#a" fill="url(#h)"/></g></svg>